<svg xmlns="http://www.w3.org/2000/svg" viewBox="0 0 1073.1 413.3"><defs><style>.cls-1{fill:#e4e8eb;}.cls-2{fill:#ff72d6;}.cls-3{fill:#818384;}</style></defs><g id="Calque_2" data-name="Calque 2"><g id="Calque_1-2" data-name="Calque 1"><path d="M784 76.3q30.8 0 30.8-15 0-7.3 5.2-7.3t5.2 12.2q0 12-14 18.5T787 91.2a127.4 127.4 0 0 1-17.6-1q-73-9.4-125-31.7-35 55.5-62.8 147.7Q571 239.4 552 278t-41.3 63.7a189 189 0 0 1-50.7 41q-56.5 30.6-133.4 30.6a234.4 234.4 0 0 1-117-30.7q-53.5-30.2-62.4-93.2a231 231 0 0 1-1-25q0-16.6 9.7-47.3t36.3-46.5q11-6.5 16.4-6.5 9 0 8 8.4-2 2.5-10.2 8.2t-15.6 12q-7.6 6-15 19-13 21.8-13 49 0 62.5 42.7 96.2a165.6 165.6 0 0 0 51 28.7 169.7 169.7 0 0 0 56.5 10h2.5Q418.3 393 484.2 321q41.7-45 114-203.6Q623 63 630 53.4 542 26 472.3 26T359 67.8q-35.3 33.8-35.3 70.5 0 40 35.2 51a84.2 84.2 0 0 0 22.4 3.4 86.8 86.8 0 0 0 23.3-3.7q13-3.7 25.3-15.4t18.3-23q6.2-11.3 5.2-17.3v-1q4-3.5 7-2.2t3 6.3q-5 38.6-39.2 58-20.8 12.4-38.6 12.4t-31.8-5q-40.7-14.4-51.6-55a97 97 0 0 1-3.5-25.3q0-29.7 18.3-58 32.7-50.6 102.5-61A196.4 196.4 0 0 1 450 0q14.4 0 33.5 1.5t50.5 10q31.5 8.3 64.5 19.5T638 44q24-29.6 36-30a18.5 18.5 0 0 1 6.7-1q4.2 0 6.7 6.8t-3.4 9a15 15 0 0 1-6.4-.6q-3-2-12.2 6.2A129.8 129.8 0 0 0 651.8 48q46.6 15 81.8 21.6t50.5 6.7z" class="cls-1"/><path d="M106.6 140.7a2.5 2.5 0 0 1-2 0 2 2 0 0 1-1-1.3 2.4 2.4 0 0 1 0-1.6 2.3 2.3 0 0 1 1.5-1.3 13.8 13.8 0 0 0 4.5-2.5 14.5 14.5 0 0 0 3.4-4 7.3 7.3 0 0 0 1-4.6 7 7 0 0 0-3-4.5 14 14 0 0 0-7-2.7 41 41 0 0 0-7.4 0 98.4 98.4 0 0 0-13.8 2q-6.8 1.6-13.4 3.8t-13.2 4.5q-6.6 2.3-13.3 4.2a27.7 27.7 0 0 1 4.4 10q1.3 5.7 2 10.7a140.6 140.6 0 0 1 .5 31.4 256.6 256.6 0 0 1-5 31 2 2 0 0 1-1 1.5 2.5 2.5 0 0 1-1.7.2 2 2 0 0 1-1.2-.8 2.4 2.4 0 0 1-.3-2 249.4 249.4 0 0 0 4.7-30.2 137.2 137.2 0 0 0-.4-30.7l-.8-4.7a50.6 50.6 0 0 0-1.2-5.5 45 45 0 0 0-2-5.5 10.7 10.7 0 0 0-2.8-4 84 84 0 0 1-15.8 2.4 49 49 0 0 1-5.5 0 47.2 47.2 0 0 1-7.6-1 24 24 0 0 1-6.6-2A4.6 4.6 0 0 1 0 129a3.3 3.3 0 0 1 1.3-2.7 8.3 8.3 0 0 1 3-1.4 22.4 22.4 0 0 1 3.7-.7q1.8 0 3-.3h6.2a64.7 64.7 0 0 1 7.3.5A56.8 56.8 0 0 1 32 126a28.4 28.4 0 0 1 6.6 2.8l1.7-.5q7-2 14-4.2t13.8-4.4q7-2 14-3.7a107 107 0 0 1 14.5-2.3 44.6 44.6 0 0 1 10 .5 15.7 15.7 0 0 1 8.6 4.6 10.3 10.3 0 0 1 3.4 6.3 12 12 0 0 1-1.3 6.6 17.6 17.6 0 0 1-4.4 5.6 18.3 18.3 0 0 1-6 3.5zM5.4 129.2a28.3 28.3 0 0 0 13 3 65.3 65.3 0 0 0 13.4-1.6 35 35 0 0 0-9.5-2 84.8 84.8 0 0 0-9.2-.3 35 35 0 0 0-3.7.6 20.5 20.5 0 0 1-4 .2z" class="cls-2"/><path d="M84.4 196.6a27.5 27.5 0 0 1-6 7.7 36 36 0 0 1-6.8 5q-2.3 1-3.3-.5t.7-3q2-1 4.7-3.2a19.2 19.2 0 0 0 5-5.3 62.3 62.3 0 0 1-6.7.6 9.3 9.3 0 0 1-5.2-1.2c-1.2-.7-1.8-1.5-2-2.4a4 4 0 0 1 .8-2.4 9.4 9.4 0 0 1 2-2.3A17 17 0 0 1 70 188q5-2.7 9.2-1.4a7 7 0 0 1 5.2 5.4 27.2 27.2 0 0 1 7.7 0 6 6 0 0 1 5 3 5.6 5.6 0 0 1-.2 4.5l-2 5.5a20 20 0 0 0-.8 6.4q0 3.6 2.6 5a16.8 16.8 0 0 0 10.3 1 46.7 46.7 0 0 0 11-3.4 79.6 79.6 0 0 0 9.2-5q4-2.4 6.3-4a16 16 0 0 1 2.8-1.4 1.7 1.7 0 0 1 2 .3q2 2-2 4.7-3.6 2.4-7.7 5t-7 3.7a53.5 53.5 0 0 1-6 2.3 48.5 48.5 0 0 1-7 1.8 29.6 29.6 0 0 1-7 .4 20.4 20.4 0 0 1-6.3-1.5 9.4 9.4 0 0 1-4.8-4.5 12.3 12.3 0 0 1-1-5.8 22 22 0 0 1 1-6.6L92 200a4.2 4.2 0 0 0 .3-2.6c-.4-.8-1.3-1.2-2.6-1.2a41 41 0 0 0-5.3.4zm-14-3.5q0 .6 3.3.4a55.8 55.8 0 0 0 6-.7 2.5 2.5 0 0 0-2.2-2.3 7.3 7.3 0 0 0-4.6.6q-2.6 1.2-2.6 2z" class="cls-2"/><path d="M220 207.8a108.5 108.5 0 0 1-10 6.3q-7 4-27.4 13.3a73.2 73.2 0 0 1-.6 19 91.3 91.3 0 0 1-5 18.3 138.5 138.5 0 0 1-8 17 104.4 104.4 0 0 1-10.4 15q-1.4 1.7-3-.4a42.8 42.8 0 0 1-4-7.6 45 45 0 0 1-2.5-7.3 46 46 0 0 1-1.3-13 50 50 0 0 1 2.2-12.6 48.3 48.3 0 0 1 5-11.4 59.3 59.3 0 0 1 7.8-9.8 55.6 55.6 0 0 1 14.8-10.6q-.6-4-1.5-8.2t-1.4-8a43 43 0 0 1-6.6 6.8 24.8 24.8 0 0 1-9.5 5 19.5 19.5 0 0 1-9.5.4 19 19 0 0 1-8.3-4.4 21.8 21.8 0 0 1-6-9 2 2 0 0 1 .3-1.8 2.4 2.4 0 0 1 1.3-1 2.8 2.8 0 0 1 1.5 0q.8.2 1.4 1.6a16.7 16.7 0 0 0 4.6 7 13.5 13.5 0 0 0 6.5 3.2 16 16 0 0 0 7.4-.4 21.7 21.7 0 0 0 7.5-4 31.7 31.7 0 0 0 4.5-4.5q2-2.4 3.4-4.6a3.7 3.7 0 0 1 3-1.3q2 .2 2.5 1.7 1 4 2 10t1.4 9.8q23.6-11 27-13t8.8-5.2a3 3 0 0 1 2-.4 1.7 1.7 0 0 1 1 .8 2.6 2.6 0 0 1 .3 1.6 2.8 2.8 0 0 1-1 1.8zm-41.7 21a75.2 75.2 0 0 0-13.2 9.7 45.8 45.8 0 0 0-8.4 11.6 40.3 40.3 0 0 0-3.8 11.6 41.5 41.5 0 0 0-.3 10.8 51.5 51.5 0 0 0 1.6 9 47.5 47.5 0 0 0 2.3 6l1.5 3.3a78 78 0 0 0 8.7-13.6 115.2 115.2 0 0 0 7-16.5 116.4 116.4 0 0 0 4.2-16.8 53 53 0 0 0 .6-15z" class="cls-2"/><path d="M260.5 199.5a2 2 0 0 1 1.5 2.2 2 2 0 0 1-.7 1.5 2 2 0 0 1-1.4.6l-4-.8a50.5 50.5 0 0 0-6-.8q-4.7-.3-9.2-.3a37.6 37.6 0 0 0-5 .3 45 45 0 0 0-6.5 1.4 35.7 35.7 0 0 0-5.8 2.3q-2.5 1.2-2.5 2 0 1.3 8.7 3.8a79.4 79.4 0 0 0 21 2.5 164 164 0 0 0 21-1 91.8 91.8 0 0 0 15.3-3 45 45 0 0 0 11.4-5.3q2.2-1.2 3-1a2 2 0 0 1 1.4.7 2 2 0 0 1 .5 1.7 2.5 2.5 0 0 1-1 1.4l-2.8 2q-11.2 6.3-29.2 8t-28.3.3a122.5 122.5 0 0 1-14.5-2.2 46 46 0 0 1-7-2.4 15 15 0 0 1-4.2-2.5 3.4 3.4 0 0 1-1.3-2.5 5 5 0 0 1 1.4-3.2 18.2 18.2 0 0 1 5.5-3.7 35.2 35.2 0 0 1 8.4-3 64.8 64.8 0 0 1 9-1 96 96 0 0 1 11.2.3 66.5 66.5 0 0 1 10 1.5z" class="cls-2"/><path d="M354.3 203.6a2 2 0 0 1 1.8-.3 2 2 0 0 1 1.5 1 2.2 2.2 0 0 1 0 1.6 4.2 4.2 0 0 1-2 2 38.8 38.8 0 0 1-7.6 4 96 96 0 0 1-10.6 4 48 48 0 0 1-10.8 1.8 52.7 52.7 0 0 1-9.8-.3 28.6 28.6 0 0 1-5.8-1.6 20 20 0 0 1-4.3-2.5 25.6 25.6 0 0 1-4.2-4 10 10 0 0 1-2.5-4.4q0-1.8 2-2a3 3 0 0 1 2.2 1.5 23.8 23.8 0 0 0 2 2.7 25.4 25.4 0 0 0 2.7 2.4 18.3 18.3 0 0 0 3.7 2.3q3 1.3 9.2 1.7a38.6 38.6 0 0 0 12-1 70 70 0 0 0 11-4 60 60 0 0 0 9.3-5zm-54-19a2.6 2.6 0 0 1 1-1.7 2 2 0 0 1 1.5-.6 2.6 2.6 0 0 1 1.4.7 2.3 2.3 0 0 1 .7 1.8q0 1.7 1.3 1.7a25 25 0 0 0 2.8-.2 2.5 2.5 0 0 1 2 .4 2 2 0 0 1 .8 1.3 2.3 2.3 0 0 1-.3 1.5 2.3 2.3 0 0 1-1.5 1.2 9 9 0 0 1-6.6-.4q-3-1.4-3-5.8z" class="cls-2"/><path d="M394.8 201a2 2 0 0 1 1.5 2.2 2 2 0 0 1-.7 1.5 2 2 0 0 1-1.4.6 15 15 0 0 1-2.4-.5 50.3 50.3 0 0 0-7-1q-5.2-.4-9.7-.4a37.5 37.5 0 0 0-5 .4l-6 1a25.2 25.2 0 0 0-5.3 1.6q-2.5 1-2.5 1.8 0 1.3 4.5 2.5a40.4 40.4 0 0 0 8 1.4q3.8.3 6 .3t4.3-.3l6-1a54 54 0 0 0 8.8-2.5 50.4 50.4 0 0 0 8.5-4q4-2.3 4.8-5a2.3 2.3 0 0 1 4.3-.6 20.7 20.7 0 0 0 9.5 9.4 30.2 30.2 0 0 0 13 3 39.4 39.4 0 0 0 12.7-2A37 37 0 0 0 457 204a4.7 4.7 0 0 1 2-1 2 2 0 0 1 1.6.6 2 2 0 0 1 .6 1.3 2.5 2.5 0 0 1-.3 1.2 4.8 4.8 0 0 1-1.4 1.3 39.5 39.5 0 0 1-11 6A41.8 41.8 0 0 1 434 216a37.3 37.3 0 0 1-13.7-2.6 23.7 23.7 0 0 1-11-9 30.2 30.2 0 0 1-7.2 5.3 50.5 50.5 0 0 1-9 3.8 72.6 72.6 0 0 1-10 2.3 68.6 68.6 0 0 1-21.2 0 32.4 32.4 0 0 1-7.3-2 16.7 16.7 0 0 1-4-2.5 3.3 3.3 0 0 1-1.3-2.4q0-1.6 2-3.2a20.3 20.3 0 0 1 5.6-3 54.4 54.4 0 0 1 7.7-2 65 65 0 0 1 9-1.3q5.5 0 10.5.3a55.2 55.2 0 0 1 10.6 1.7zM634.8 140.7a2.5 2.5 0 0 1-2 0 2 2 0 0 1-1-1.3 2.4 2.4 0 0 1 0-1.6 2.3 2.3 0 0 1 1.4-1.3 13.8 13.8 0 0 0 4.4-2.5 14.5 14.5 0 0 0 3.4-4 7.3 7.3 0 0 0 1-4.6 7 7 0 0 0-3-4.5 14 14 0 0 0-7-2.7 41 41 0 0 0-7.3 0 98.4 98.4 0 0 0-13.7 2q-6.8 1.6-13.4 3.8t-13.2 4.5q-6.6 2.2-13.3 4.2a27.7 27.7 0 0 1 4.6 10q1.3 5.6 2 10.7a140.6 140.6 0 0 1 .4 31.4 256.6 256.6 0 0 1-4.8 31 2 2 0 0 1-1 1.5 2.5 2.5 0 0 1-1.7.2 2 2 0 0 1-1.3-.8 2.4 2.4 0 0 1-.3-2 249.4 249.4 0 0 0 4.6-30.2 137.2 137.2 0 0 0-.4-30.6l-.8-4.8a50.6 50.6 0 0 0-1.2-5.7 45 45 0 0 0-2-5.5 10.7 10.7 0 0 0-3-4 84 84 0 0 1-15.7 2.4 49 49 0 0 1-5.5 0 47.2 47.2 0 0 1-7.5-1 24 24 0 0 1-6.5-2 4.6 4.6 0 0 1-2.8-4.3 3.3 3.3 0 0 1 1.2-2.7 8.3 8.3 0 0 1 3-1.4 22.4 22.4 0 0 1 3.7-.7q2 0 3.2-.3h6a64.7 64.7 0 0 1 7.5.6 56.8 56.8 0 0 1 7.5 1.5 28.4 28.4 0 0 1 6.6 2.8l1.6-.4q7-2 14-4.3t13.8-4.4q7-2 14-3.7a107 107 0 0 1 14.4-2.3 44.6 44.6 0 0 1 10 .6 15.7 15.7 0 0 1 8.6 4.5 10.3 10.3 0 0 1 3.3 6.4 12 12 0 0 1-1.3 6.4 17.6 17.6 0 0 1-4.4 5.6 18.3 18.3 0 0 1-6 3.5zm-101.3-11.5a28.3 28.3 0 0 0 13 3 65.3 65.3 0 0 0 13.4-1.6 35 35 0 0 0-9.6-2 84.8 84.8 0 0 0-9-.3 35 35 0 0 0-4 .6 20.5 20.5 0 0 1-4 .2zM680 204a5 5 0 0 1 1.7-.8 2 2 0 0 1 2 .6 1.8 1.8 0 0 1 .4 1.5 3.2 3.2 0 0 1-1 2 40 40 0 0 1-6 4 43.3 43.3 0 0 1-8.2 3.6 73.2 73.2 0 0 1-9.3 2.3 48.8 48.8 0 0 1-9 1A30 30 0 0 1 639 216a17 17 0 0 1-7.8-6.3 30.6 30.6 0 0 1-6.3 7 14 14 0 0 1-8.8 3 15 15 0 0 1-7.6-1.8 17.8 17.8 0 0 1-5-4.2 24.6 24.6 0 0 1-3-4.4 8.3 8.3 0 0 1-1-3.6 2 2 0 0 1 .7-1.7 2.3 2.3 0 0 1 1.5-.4q1.5 0 2.5 2a38 38 0 0 0 2 4 13 13 0 0 0 3.4 3.7 10.8 10.8 0 0 0 6 2 10 10 0 0 0 4-1 16.6 16.6 0 0 0 4-2.4 19.4 19.4 0 0 0 3.3-4 13.8 13.8 0 0 0 2-4.7q.5-2.4 2.3-2.4a2 2 0 0 1 2 1 9.5 9.5 0 0 1 .7 2 14.6 14.6 0 0 0 2 3.8 10.8 10.8 0 0 0 3.3 3 17.8 17.8 0 0 0 5.4 1.8 39.8 39.8 0 0 0 8 .7 38.5 38.5 0 0 0 8-1 63.3 63.3 0 0 0 8.2-2.2 34.7 34.7 0 0 0 7-3.3l4-2.6z" class="cls-2"/><path d="M692.6 196.6a27.5 27.5 0 0 1-6 7.7 36 36 0 0 1-6.8 5q-2.3 1-3.3-.5t.7-3q2-1 4.7-3.2a19.2 19.2 0 0 0 4.8-5.3 62.2 62.2 0 0 1-6.6.6 9.3 9.3 0 0 1-5.2-1.2q-1.8-1-1.8-2.4a4 4 0 0 1 .6-2.4 9.4 9.4 0 0 1 2-2.3 17.3 17.3 0 0 1 2.3-1.6q5.2-2.7 9.5-1.4a7 7 0 0 1 5 5.4 27.2 27.2 0 0 1 8 0 6 6 0 0 1 4.6 3 5.6 5.6 0 0 1 0 4.5l-2 5.5a19.8 19.8 0 0 0-.8 6.4q0 3.6 2.6 5a16.8 16.8 0 0 0 10.3 1 46.7 46.7 0 0 0 11-3.5 79.4 79.4 0 0 0 9.3-5l6.4-4a16 16 0 0 1 2.8-1.4 1.7 1.7 0 0 1 2 .3q2 2-2 4.7-3.6 2.4-7.7 4.8t-7 3.8a53.5 53.5 0 0 1-6 2.4 48.5 48.5 0 0 1-7 1.7 29.6 29.6 0 0 1-7 .5 20.4 20.4 0 0 1-6.3-1.5 9.4 9.4 0 0 1-4.8-4.5 12.3 12.3 0 0 1-1-5.8 22 22 0 0 1 1-6.6l1.4-3.6a4.2 4.2 0 0 0 .5-2.6q-.6-1.2-2.6-1.2a41 41 0 0 0-5.4.4zm-14-3.5q0 .6 3.4.4a55.8 55.8 0 0 0 6-.7 2.5 2.5 0 0 0-2.3-2.3 7.3 7.3 0 0 0-4.6.6q-2.4 1.2-2.4 2z" class="cls-2"/><path d="M840.2 207.8a108.5 108.5 0 0 1-10 6.3q-7 4-27.4 13.3a73.2 73.2 0 0 1-.7 19 91.3 91.3 0 0 1-5 18.3 138.5 138.5 0 0 1-8 17 104.4 104.4 0 0 1-10.3 15q-1.5 1.7-3-.4a42.8 42.8 0 0 1-4-7.6 45 45 0 0 1-2.5-7.3 46 46 0 0 1-1.4-13 50 50 0 0 1 2.2-12.6 48.3 48.3 0 0 1 5.2-11.4 59.3 59.3 0 0 1 7.8-9.8 55.6 55.6 0 0 1 14.8-10.6q-.5-3-1-6.4t-2-10q-2.7 1.7-4.5 2.6a40.7 40.7 0 0 1-7.6 3 80 80 0 0 1-9.8 2.4 63 63 0 0 1-21.3 0 35 35 0 0 1-7.3-2.2 12 12 0 0 1-4-2.6 3.8 3.8 0 0 1-1.2-2.3q-.2-1.6 2-3.2a20.4 20.4 0 0 1 5.4-3 55 55 0 0 1 7.7-2 63 63 0 0 1 9-1.3 87.3 87.3 0 0 1 10.8 0 49 49 0 0 1 10.5 2 2 2 0 0 1 1.4 2.2 2 2 0 0 1-.7 1.5 2 2 0 0 1-1.4.6.8.8 0 0 1-.7 0 36.5 36.5 0 0 0-8.8-1.7q-5.3-.4-8.5-.3t-6.3.5a52.4 52.4 0 0 0-6.2 1 39.8 39.8 0 0 0-5.3 1.7q-2.2 1-2.2 1.7 0 1.3 4.7 2.5a42 42 0 0 0 8.8 1.3 51.4 51.4 0 0 0 7 0q3-.4 7.5-1.3a77.4 77.4 0 0 0 9.8-2.6 23.2 23.2 0 0 0 8.4-4.6 14.6 14.6 0 0 0 1-1.2 3.7 3.7 0 0 1 2.8-1.4q2 .2 2.6 1.7 1 4.2 2 10t1.4 9.8q23.7-11 27-13t9-5.2a3 3 0 0 1 2-.3 1.7 1.7 0 0 1 1 1 2.6 2.6 0 0 1 .2 1.4 2.8 2.8 0 0 1-1 1.8zm-41.7 21a75.2 75.2 0 0 0-13.3 9.7 45.8 45.8 0 0 0-8.4 11.6 40.3 40.3 0 0 0-3.8 11.6 41.5 41.5 0 0 0-.4 10.8 51.5 51.5 0 0 0 1.6 9 47.5 47.5 0 0 0 2.2 6l1.5 3.3a78 78 0 0 0 8.6-13.6 115.2 115.2 0 0 0 7-16.5 116.4 116.4 0 0 0 4.2-16.8 53 53 0 0 0 .7-15z" class="cls-2"/><path d="M907.2 205.3a7.6 7.6 0 0 1 2.8-1.2 2 2 0 0 1 1.8.6 2 2 0 0 1 .4 1.7 3.3 3.3 0 0 1-1.6 2q-6 4.4-20 7.4a122.6 122.6 0 0 1-25.7 3l-8-.2a39 39 0 0 1-8.2-1.3 24.3 24.3 0 0 1-6.7-2.8 18 18 0 0 1-4.8-4.6 2.6 2.6 0 0 1-2.7-1.5 2 2 0 0 1 1-2.7 13.5 13.5 0 0 1-.2-3.7 13 13 0 0 1 1.3-4 14.6 14.6 0 0 1 3.3-4.4 24.4 24.4 0 0 1 5.3-3.7 16.2 16.2 0 0 1 6.5-2q3.3-.2 4.7 1a3.3 3.3 0 0 1 1.4 2.7 6.8 6.8 0 0 1-2 4.2 25.6 25.6 0 0 1-4 3.7q-2 1.5-5 3.7t-5.7 3.6a10.5 10.5 0 0 0 5 4.4 29.4 29.4 0 0 0 7 2 46.3 46.3 0 0 0 7 1h5.7a102.5 102.5 0 0 0 22-2.4 75.5 75.5 0 0 0 19.2-6.7zm-67-2.7a97 97 0 0 0 8.8-6.3q3.7-3 3.7-4 0-.6-1.4-.4a9.6 9.6 0 0 0-3.2 1 17 17 0 0 0-3.5 2.4 22 22 0 0 0-3 3.3 6.3 6.3 0 0 0-1.4 4z" class="cls-2"/><path d="M950.4 200.7a2.4 2.4 0 0 1 1 2 1.7 1.7 0 0 1-.7 1.6 2.5 2.5 0 0 1-1.7.2l-2.3-.6a48 48 0 0 0-6-1 77 77 0 0 0-11-.3 49.2 49.2 0 0 0-12 2q-6 1.6-6 3.3a2.6 2.6 0 0 0 1.3 1.6 13.4 13.4 0 0 0 2.7 1.3 31.4 31.4 0 0 0 3.3 1 21.6 21.6 0 0 0 3 .5 76.6 76.6 0 0 0 7.8.6 55 55 0 0 0 9-.3 39.2 39.2 0 0 0 8.6-2 15 15 0 0 0 6.4-4.4 2.2 2.2 0 0 0 0-2.4 15.8 15.8 0 0 0-1.2-2 2.3 2.3 0 0 1-.5-1.4 2 2 0 0 1 1-1.6 4 4 0 0 1 2.4-.3 9.5 9.5 0 0 1 3.2 1.5q1.8 1.2 6 3.4a74.5 74.5 0 0 0 7.8 3 30.6 30.6 0 0 0 7.3 1.6 35.6 35.6 0 0 0 7.3 0q3.6-.6 9-4.6a3.3 3.3 0 0 1 2.6-.2 1.8 1.8 0 0 1 1 1.8 2.6 2.6 0 0 1-1 2 25 25 0 0 1-9.3 4.8 29.4 29.4 0 0 1-10.3.5 47.4 47.4 0 0 1-10.5-2.3q-4.6-1.7-9.8-4a7 7 0 0 1-2.8 4.6 25 25 0 0 1-6.7 3.7 57 57 0 0 1-20 3.3 50 50 0 0 1-10.2-1 35 35 0 0 1-9.2-3.6q-4-2.3-4.3-4.3a4.3 4.3 0 0 1 1.5-3.7 16.2 16.2 0 0 1 4.2-3 34.7 34.7 0 0 1 5.6-2 45 45 0 0 1 7.5-1.5l7.7-.6a64.4 64.4 0 0 1 9.3.5 37.8 37.8 0 0 1 9 2z" class="cls-2"/><path d="M1069.8 203.3q2-1 3 .5a2.3 2.3 0 0 1-.3 2.8 40.3 40.3 0 0 1-7.5 5 35.3 35.3 0 0 1-9.4 3 36.7 36.7 0 0 1-10.3.7 15 15 0 0 1-8.4-3.5 24.8 24.8 0 0 1-3-3l-2.3-3a21.2 21.2 0 0 0-2.7-3.2 5.2 5.2 0 0 0-3.2-1.5 8.5 8.5 0 0 0-4.6 1.8 38 38 0 0 0-5 4.3q-2.7 2.6-5.3 5.4t-5 5a2.6 2.6 0 0 1-2.7.4q-2-1-4-5.3a55.2 55.2 0 0 1-2.8-6.6 2.2 2.2 0 0 1 0-2.2 2.5 2.5 0 0 1 1.5-1 2 2 0 0 1 1.6 0 2 2 0 0 1 1 1.3q.7 2.3 2 5.5t2 3q0 .2 3.6-3.7a87.2 87.2 0 0 1 6.3-6.4 34.2 34.2 0 0 1 5.6-4 11 11 0 0 1 5.6-1.8 7.8 7.8 0 0 1 4.7 1.4 17 17 0 0 1 3.4 3.2l3 4a23 23 0 0 0 3.6 3.7 15 15 0 0 0 7 2 26 26 0 0 0 8.2-.8 41 41 0 0 0 7.8-3 37.2 37.2 0 0 0 6.5-4z" class="cls-2"/><path d="M233.2 264v13q0 4.5 1 5.5a5 5 0 0 0 3.8 1.4h1.8v1.2h-19.5V284h1.7a4.6 4.6 0 0 0 4-2q.8-1 .8-5V248q0-4.3-1-5.3a5 5 0 0 0-3.8-1.5h-1.7v-1.3H237a29 29 0 0 1 9.6 1.4 13 13 0 0 1 3.3 1.7 12 12 0 0 1 2.5 2.6 12.3 12.3 0 0 1 1.8 3.2 11 11 0 0 1 .7 4 13 13 0 0 1-1 5 11 11 0 0 1-2.8 4 12.8 12.8 0 0 1-4.4 2.5 17.7 17.7 0 0 1-6 1 39 39 0 0 1-7.6-1zm0-2l3.2.4a18.4 18.4 0 0 0 2.3.2 7.7 7.7 0 0 0 3.3-.7 8.7 8.7 0 0 0 2.8-2 9.3 9.3 0 0 0 1.8-3.2 11 11 0 0 0 .7-4 12.3 12.3 0 0 0-.8-4.3 9.7 9.7 0 0 0-2-3.3 8.7 8.7 0 0 0-3-2 10.2 10.2 0 0 0-4-.8 21.3 21.3 0 0 0-4.3.6zM271.5 260.8h21v-13-2.6a7 7 0 0 0-.2-1.7 2.4 2.4 0 0 0-.6-1 4.8 4.8 0 0 0-1-.7 6 6 0 0 0-3-.8H286v-1.3h19.5v1.3H304a6.8 6.8 0 0 0-1.5 0 5.8 5.8 0 0 0-1.3.6 4.7 4.7 0 0 0-1.2.8 2.4 2.4 0 0 0-.7 1 17.5 17.5 0 0 0-.3 4.5v31.8a9.2 9.2 0 0 0 .3 1.6 2.4 2.4 0 0 0 .5 1 4 4 0 0 0 1 .7 6 6 0 0 0 3 1h1.7v1.2H286V284h1.7a10.8 10.8 0 0 0 2-.2 3 3 0 0 0 1.6-1 4.4 4.4 0 0 0 1-2 17 17 0 0 0 .3-3.7v-13.7h-21v16.5a7 7 0 0 0 0 1.7 2.4 2.4 0 0 0 .7 1 4.8 4.8 0 0 0 1 .7 6 6 0 0 0 3 1h1.7v1.2h-19.5V284h1.6a4.8 4.8 0 0 0 4.2-1.7q.8-1 .8-5.2V248 245a6.7 6.7 0 0 0-.3-1.5 2.6 2.6 0 0 0-.6-1 4 4 0 0 0-.8-.7 6 6 0 0 0-3-.8h-1.7v-1.3H278v1.3h-1.6a6.5 6.5 0 0 0-1.4 0 5.8 5.8 0 0 0-1.3.6 4.8 4.8 0 0 0-1 .8 2.4 2.4 0 0 0-.8 1 16.3 16.3 0 0 0-.5 4.5zM332 238.7a19.8 19.8 0 0 1 8.3 1.8 22.3 22.3 0 0 1 7 5 24 24 0 0 1 6.5 16.7 25.3 25.3 0 0 1-1.7 9.6 24.4 24.4 0 0 1-4.7 7.6 22 22 0 0 1-7 5 21 21 0 0 1-8.8 2 21.7 21.7 0 0 1-8.7-2 20.8 20.8 0 0 1-7-4.8 23.5 23.5 0 0 1-4.8-7.6 26.4 26.4 0 0 1-1.7-9.7 24.5 24.5 0 0 1 1.7-9.2 23.3 23.3 0 0 1 4.8-7.4 22.4 22.4 0 0 1 7-5 22 22 0 0 1 9.2-2zm-.7 2.5a12.5 12.5 0 0 0-6 1.4 13 13 0 0 0-4.6 4.2 20.6 20.6 0 0 0-2.8 6.6 36.8 36.8 0 0 0-1 8.8 38.6 38.6 0 0 0 1 8.8 22 22 0 0 0 2.8 6.8 13.3 13.3 0 0 0 4.5 4.5 12 12 0 0 0 6.2 1.6 14 14 0 0 0 5.8-1.3 12.5 12.5 0 0 0 4.7-3.7 18.5 18.5 0 0 0 3-6.5 34.3 34.3 0 0 0 1.2-9.4 42 42 0 0 0-1-9 20.7 20.7 0 0 0-2.7-7 12.7 12.7 0 0 0-4.6-4.3 13.5 13.5 0 0 0-6.6-1.5zM396.2 239.7v10.7h-.7q-.6-4.3-2.6-6a8.5 8.5 0 0 0-6-1.8h-6.3v34.7a15.8 15.8 0 0 0 .3 3.7 4.5 4.5 0 0 0 1 2 2.7 2.7 0 0 0 1.4.8 11 11 0 0 0 2 .2h1.7v1.3h-19V284h1.5a9.8 9.8 0 0 0 2-.2 2.8 2.8 0 0 0 1.6-1 4.6 4.6 0 0 0 1-2 15.3 15.3 0 0 0 .3-3.4v-34.8H369a18 18 0 0 0-3.8.3 6.7 6.7 0 0 0-2.7 1 6 6 0 0 0-1.8 2.5 11.6 11.6 0 0 0-1 4h-1v-10.8zM422.3 238.7a19.8 19.8 0 0 1 8.3 1.8 22.3 22.3 0 0 1 7 5 24 24 0 0 1 6.5 16.7 25.3 25.3 0 0 1-1.7 9.6 24.4 24.4 0 0 1-4.8 7.6 22 22 0 0 1-7 5 21 21 0 0 1-8.7 2 21.7 21.7 0 0 1-8.7-2 20.8 20.8 0 0 1-7-4.8 23.5 23.5 0 0 1-4.6-7.6 26.4 26.4 0 0 1-1.8-9.7 24.5 24.5 0 0 1 1.8-9.2 23.3 23.3 0 0 1 4.7-7.4 22.4 22.4 0 0 1 7.3-5 22 22 0 0 1 9-2zm-.7 2.5a12.5 12.5 0 0 0-6 1.4 13 13 0 0 0-4.6 4.2 20.6 20.6 0 0 0-2.8 6.6 36.8 36.8 0 0 0-1 8.8 38.6 38.6 0 0 0 1 8.7 22 22 0 0 0 2.7 6.8 13.3 13.3 0 0 0 4.5 4.4 12 12 0 0 0 6.2 1.6 14 14 0 0 0 5.8-1.2 12.5 12.5 0 0 0 4.7-3.7 18.5 18.5 0 0 0 3-6.6 34.3 34.3 0 0 0 1.2-9.3 42 42 0 0 0-1-9.2 20.7 20.7 0 0 0-2.7-7 12.7 12.7 0 0 0-4.6-4.2 13.5 13.5 0 0 0-6.4-1.4zM489 238.7l1 14.3h-1q-2.2-6.3-6-9a15 15 0 0 0-9.2-3 15.4 15.4 0 0 0-12.5 6 19.6 19.6 0 0 0-3.3 6.5 28 28 0 0 0-1.2 8.2 27.4 27.4 0 0 0 2.6 12 20 20 0 0 0 3 4.5 17.2 17.2 0 0 0 3.6 3.3 14.7 14.7 0 0 0 4 2 15.7 15.7 0 0 0 4.3.5 18.7 18.7 0 0 0 9.4-2.5v-13.2a25.3 25.3 0 0 0 0-2.8 6 6 0 0 0-.5-1.7 2.5 2.5 0 0 0-.7-1 6.3 6.3 0 0 0-1-.6 9.3 9.3 0 0 0-3.7-.6v-1.3h17.6v1.3h-1a6.6 6.6 0 0 0-2 .3 2.6 2.6 0 0 0-1.2 1 4.6 4.6 0 0 0-.8 2 21 21 0 0 0-.2 3.3v14a41.6 41.6 0 0 1-3.8 1.7 24.8 24.8 0 0 1-3.8 1.2 33.5 33.5 0 0 1-8.3 1 29 29 0 0 1-10.3-1.7 23.6 23.6 0 0 1-8-5 21.5 21.5 0 0 1-5-7.2 23 23 0 0 1-1.8-9 25.8 25.8 0 0 1 12.2-21.7 23 23 0 0 1 11.8-3q1.4 0 2.4.2a17.5 17.5 0 0 1 2.2.3 22.8 22.8 0 0 1 2.5.8l3.2 1a7.4 7.4 0 0 0 2.5.8 1.3 1.3 0 0 0 1-.6 4.4 4.4 0 0 0 .6-2.3zM542.7 285.2h-12L515 264h-4.8v13a17 17 0 0 0 .3 4 4.5 4.5 0 0 0 1 2 2.6 2.6 0 0 0 1.4.8 11.8 11.8 0 0 0 2 0h2v1.4h-19.5V284h1.7a4.7 4.7 0 0 0 4-2q.8-1 .8-5V248q0-4.2-1-5.3a4.8 4.8 0 0 0-3.8-1.5h-1.8v-1.3H514a62.4 62.4 0 0 1 6.3.3 21.8 21.8 0 0 1 4.3.8 13.5 13.5 0 0 1 3.2 1.6 11.4 11.4 0 0 1 2.7 2.3 11 11 0 0 1 1.8 3 10 10 0 0 1 .6 3.7 10.6 10.6 0 0 1-2.8 7.3q-2.7 3-8.4 4.4l9.3 13 3 3.8a13.2 13.2 0 0 0 2.6 2.3 9.4 9.4 0 0 0 2.7 1.3 20.2 20.2 0 0 0 3.4.6zm-32.3-23.4h2a19.6 19.6 0 0 0 5.6-.7 12 12 0 0 0 4-2 8.7 8.7 0 0 0 2.6-3.2 9.5 9.5 0 0 0 .8-4 10.5 10.5 0 0 0-.7-4 8.7 8.7 0 0 0-2-3 9 9 0 0 0-3-2 10.8 10.8 0 0 0-4-.6 27.5 27.5 0 0 0-5.3.6z" class="cls-3"/><path d="M573.5 270H556l-3.2 7.2a11.7 11.7 0 0 0-1 4 2.7 2.7 0 0 0 0 1 1.8 1.8 0 0 0 .8.8 5.7 5.7 0 0 0 1.6.6 14 14 0 0 0 2.7.4v1.3h-14.4V284a9.8 9.8 0 0 0 2.8-.7 5.4 5.4 0 0 0 1.8-1.4 9.4 9.4 0 0 0 1.4-2.4l1.5-3.5 16-37.2h1.2l15.8 37.7a30.5 30.5 0 0 0 1.8 3.8 9.3 9.3 0 0 0 1.7 2.2 4.8 4.8 0 0 0 2 1 10 10 0 0 0 2.4.4v1.2h-18V284a6.6 6.6 0 0 0 3.5-1 2.3 2.3 0 0 0 1-1.8 16.3 16.3 0 0 0-1.3-4.7zm-1-2.5l-7.7-18.4-8 18.5zM605.7 264v13q0 4.5 1 5.5a5 5 0 0 0 4 1.4h1.6v1.2h-19.5V284h1.7a4.6 4.6 0 0 0 4-2q.8-1 .8-5V248q0-4.3-1-5.3a5 5 0 0 0-3.8-1.5h-1.7v-1.3h16.7a29 29 0 0 1 9.6 1.3 13 13 0 0 1 3.3 1.7 12 12 0 0 1 2.7 2.6 12.3 12.3 0 0 1 1.8 3.2 11 11 0 0 1 .6 3.8 13 13 0 0 1-1 5 11 11 0 0 1-2.7 4 12.8 12.8 0 0 1-4.4 2.7 17.7 17.7 0 0 1-6 1 39 39 0 0 1-7.6-1zm0-2l3 .4a18.4 18.4 0 0 0 2.5.2 7.7 7.7 0 0 0 3.3-.7 8.7 8.7 0 0 0 2.7-2 9.3 9.3 0 0 0 2-3.2 11 11 0 0 0 .6-4 12.3 12.3 0 0 0-.8-4.3 9.8 9.8 0 0 0-2-3.3 8.7 8.7 0 0 0-3-2 10 10 0 0 0-4-.8 21.3 21.3 0 0 0-4.3.6zM644 260.8h21v-13-2.6a7 7 0 0 0-.3-1.7 2.5 2.5 0 0 0-.5-1 4.8 4.8 0 0 0-1-.7 6 6 0 0 0-3-.8h-1.7v-1.3H678v1.3h-1.6a6.8 6.8 0 0 0-1.4 0 5.8 5.8 0 0 0-1.3.6 4.7 4.7 0 0 0-1 .8 2.4 2.4 0 0 0-.8 1 17.6 17.6 0 0 0-.5 4.5v31.8a9 9 0 0 0 .3 1.6 2.4 2.4 0 0 0 .5 1 4.2 4.2 0 0 0 1 .7 6 6 0 0 0 3 1h1.7v1.2h-19.5V284h1.6a10.8 10.8 0 0 0 2.2-.2 3 3 0 0 0 1.5-1 4.4 4.4 0 0 0 1-2 17 17 0 0 0 .3-3.7v-13.7h-21v16.5a6.8 6.8 0 0 0 .2 1.7 2.4 2.4 0 0 0 .6 1 4.8 4.8 0 0 0 1 .7 6 6 0 0 0 3 1h1.7v1.2H631V284h1.6a4.8 4.8 0 0 0 4-1.7q1-1 1-5.2V248 245a6.8 6.8 0 0 0-.4-1.5 2.6 2.6 0 0 0-.5-1 4.2 4.2 0 0 0-1-.7 6 6 0 0 0-3-.8H631v-1.3h19.5v1.3H649a6.6 6.6 0 0 0-1.5 0 5.8 5.8 0 0 0-1.3.6 4.7 4.7 0 0 0-1 .8 2.4 2.4 0 0 0-.8 1 16.3 16.3 0 0 0-.4 4.5zM700.5 284v1.2H681V284h1.7a11.5 11.5 0 0 0 2-.2 2.6 2.6 0 0 0 1.7-1 4.7 4.7 0 0 0 1-2 17 17 0 0 0 .2-3.7V248v-2.6a9.4 9.4 0 0 0-.3-1.7 2.4 2.4 0 0 0-.5-1 4.2 4.2 0 0 0-1-.7 6.5 6.5 0 0 0-3-.8H681v-1.3h19.5v1.3H699a10.2 10.2 0 0 0-2.2.2 2.8 2.8 0 0 0-1.5 1 4.7 4.7 0 0 0-1 2 16.6 16.6 0 0 0-.3 3.6v32a6.7 6.7 0 0 0 .3 1.6 2.4 2.4 0 0 0 .6 1 4.8 4.8 0 0 0 1 .8 6 6 0 0 0 3 .8zM716.6 242.2v18h10a12.8 12.8 0 0 0 3.5-.4 4.8 4.8 0 0 0 2.3-1.2 4.3 4.3 0 0 0 1-2 17.3 17.3 0 0 0 .5-3h1.2v15.8h-1.3a29.2 29.2 0 0 0-.5-3.3 4.6 4.6 0 0 0-1-2 4 4 0 0 0-2-1 15 15 0 0 0-3.6-.4h-10v17.7a3 3 0 0 0 .4 1.6 1.6 1.6 0 0 0 1 .5 12 12 0 0 0 2.3.2h11a10.6 10.6 0 0 0 2.4-.5 6.2 6.2 0 0 0 1.7-.8 14.4 14.4 0 0 0 1.6-1.4 25.3 25.3 0 0 0 4.3-6.3h1.3l-4 11.5h-35V284h1.6a6.5 6.5 0 0 0 1.4-.2 7 7 0 0 0 1.3-.5 4.2 4.2 0 0 0 1-.7 2.4 2.4 0 0 0 .7-1 15.5 15.5 0 0 0 .4-4.4v-29.5q0-4.4-.7-5.4-1.2-1.3-4-1.3h-1.7v-1.3h35v10h-.8a25 25 0 0 0-1-4 5.5 5.5 0 0 0-1.6-2.2 4.8 4.8 0 0 0-2.4-1 26 26 0 0 0-3.8-.2z" class="cls-3"/></g></g></svg>